<svg width="24" height="25" viewBox="0 0 24 25" fill="none" xmlns="http://www.w3.org/2000/svg">
<path d="M6.68629 7.18629L3.37258 10.5C1.54247 12.3301 1.54247 15.2973 3.37258 17.1274C5.20269 18.9575 8.16989 18.8301 10 17M6.68629 7.18629L10 3.87258C11.8301 2.04247 14.7973 2.04247 16.6274 3.87258C18.4575 5.70269 18.3691 8.694 16.539 10.5241M6.68629 7.18629L11.7574 12.2574M10 17C10.1241 18.346 10.7269 19.7122 11.7574 20.7426C14.1005 23.0858 17.8995 23.0858 20.2426 20.7426C22.5858 18.3995 22.5858 14.6005 20.2426 12.2574C19.2083 11.223 17.8903 10.6453 16.539 10.5241M10 17C9.84192 15.2855 10.4447 13.57 11.7574 12.2574M16.539 10.5241C14.8292 10.3708 13.0662 10.9486 11.7574 12.2574M5.2 12.5C4.46796 13.232 4.46796 14.1797 5.2 14.9118M10 16.5H22" stroke="black" stroke-width="1.5" stroke-linecap="round" stroke-linejoin="round"/>
</svg>
