<svg width="4" height="16" viewBox="0 0 4 16" fill="none" xmlns="http://www.w3.org/2000/svg">
<path d="M2.00008 8.8335C2.46032 8.8335 2.83341 8.4604 2.83341 8.00016C2.83341 7.53993 2.46032 7.16683 2.00008 7.16683C1.53984 7.16683 1.16675 7.53993 1.16675 8.00016C1.16675 8.4604 1.53984 8.8335 2.00008 8.8335Z" stroke="#1E1E1E" stroke-width="2" stroke-linecap="round" stroke-linejoin="round"/>
<path d="M2.00008 3.00016C2.46032 3.00016 2.83341 2.62707 2.83341 2.16683C2.83341 1.70659 2.46032 1.3335 2.00008 1.3335C1.53984 1.3335 1.16675 1.70659 1.16675 2.16683C1.16675 2.62707 1.53984 3.00016 2.00008 3.00016Z" stroke="#1E1E1E" stroke-width="2" stroke-linecap="round" stroke-linejoin="round"/>
<path d="M2.00008 14.6668C2.46032 14.6668 2.83341 14.2937 2.83341 13.8335C2.83341 13.3733 2.46032 13.0002 2.00008 13.0002C1.53984 13.0002 1.16675 13.3733 1.16675 13.8335C1.16675 14.2937 1.53984 14.6668 2.00008 14.6668Z" stroke="#1E1E1E" stroke-width="2" stroke-linecap="round" stroke-linejoin="round"/>
</svg>
