<svg width="17" height="17" viewBox="0 0 17 17" fill="none" xmlns="http://www.w3.org/2000/svg">
<g clip-path="url(#clip0_750_2043)">
<path d="M1.1665 3.16704V7.16704M1.1665 7.16704H5.1665M1.1665 7.16704L4.25984 4.26038C4.97634 3.54352 5.86275 3.01985 6.83638 2.73823C7.81 2.4566 8.8391 2.42621 9.82765 2.64988C10.8162 2.87355 11.732 3.344 12.4895 4.01732C13.2471 4.69064 13.8217 5.5449 14.1598 6.50038M15.8332 13.8337V9.83371M15.8332 9.83371H11.8332M15.8332 9.83371L12.7398 12.7404C12.0233 13.4572 11.1369 13.9809 10.1633 14.2625C9.18967 14.5441 8.16057 14.5745 7.17203 14.3509C6.18348 14.1272 5.2677 13.6568 4.51015 12.9834C3.75259 12.3101 3.17795 11.4559 2.83984 10.5004" stroke="#00909A" stroke-width="1.6" stroke-linecap="round" stroke-linejoin="round"/>
</g>
<defs>
<clipPath id="clip0_750_2043">
<rect width="16" height="16" fill="white" transform="translate(0.5 0.5)"/>
</clipPath>
</defs>
</svg>
