<svg width="21" height="21" viewBox="0 0 21 21" fill="none" xmlns="http://www.w3.org/2000/svg">
<path d="M20.3669 3.72689C20.3898 4.02409 20.4057 4.3232 20.4133 4.62484C20.4171 4.77535 20.4247 4.92522 20.4247 5.07699V5.07953C20.4247 5.28719 20.4203 5.49358 20.4133 5.69933C20.4108 5.76792 20.4063 5.83587 20.4031 5.90382C20.3968 6.04162 20.3898 6.17943 20.3803 6.31596C20.3746 6.39661 20.3669 6.47662 20.36 6.55664C20.3492 6.68047 20.3384 6.80431 20.325 6.92751C20.3161 7.01197 20.306 7.09643 20.2952 7.18025C20.2806 7.29837 20.2653 7.41712 20.2488 7.53461C20.2368 7.6197 20.2241 7.7048 20.2101 7.78926C20.1917 7.90547 20.172 8.02168 20.151 8.13726C20.1358 8.22109 20.1205 8.30491 20.1047 8.3881C20.0818 8.50495 20.057 8.6218 20.0323 8.73801C20.0151 8.81802 19.998 8.89804 19.9796 8.97806C19.951 9.10125 19.9205 9.22318 19.8894 9.34511C19.871 9.41623 19.8545 9.48736 19.8354 9.55848C19.7948 9.71026 19.7509 9.86013 19.7065 10.01C19.6944 10.05 19.6836 10.0906 19.6716 10.13C19.6138 10.3186 19.5528 10.5053 19.4887 10.6914C19.469 10.7479 19.448 10.8032 19.4283 10.859C19.382 10.9886 19.3356 11.1181 19.2861 11.2464C19.2588 11.3169 19.2302 11.3868 19.2023 11.4566C19.1572 11.569 19.1121 11.6814 19.0651 11.7932C19.0333 11.8675 19.001 11.9412 18.9686 12.0148C18.9216 12.1209 18.8746 12.2269 18.8257 12.3323C18.7908 12.4066 18.7558 12.4809 18.7203 12.5546C18.6701 12.6581 18.6193 12.761 18.5672 12.8639C18.5304 12.9363 18.4936 13.0087 18.4555 13.0811C18.4008 13.1846 18.3456 13.2868 18.2891 13.3891C18.251 13.4576 18.2135 13.5269 18.1748 13.5948C18.1284 13.6761 18.0808 13.7555 18.0332 13.8355C17.9677 13.9454 17.9023 14.0552 17.835 14.1638C17.7868 14.2413 17.7372 14.3188 17.6877 14.3956C17.6197 14.5004 17.5512 14.6052 17.4813 14.7087C17.4292 14.7855 17.3765 14.8617 17.3238 14.9379C17.2527 15.0395 17.1803 15.1405 17.1066 15.2408C17.052 15.3151 16.9974 15.3894 16.9415 15.4631C16.8653 15.5634 16.7878 15.6625 16.7097 15.7609C16.6538 15.8314 16.5986 15.9019 16.5414 15.9718C16.4583 16.0734 16.3732 16.1731 16.2881 16.2728C16.2334 16.3363 16.1795 16.4011 16.1242 16.4646C16.0258 16.5757 15.9255 16.6849 15.8245 16.7935C15.7794 16.8424 15.7349 16.8926 15.6892 16.9408C15.5419 17.0958 15.392 17.2482 15.2396 17.3974C15.2053 17.4311 15.1698 17.4628 15.1355 17.4959C15.0154 17.6114 14.8941 17.7264 14.7703 17.8388C14.7106 17.8928 14.6497 17.9448 14.5893 17.9982C14.4884 18.0871 14.3874 18.176 14.2845 18.263C14.2166 18.3202 14.1473 18.3754 14.0781 18.4319C13.9797 18.5119 13.8813 18.592 13.7816 18.6694C13.7085 18.7259 13.6349 18.7818 13.5612 18.8371C13.4628 18.9114 13.3631 18.985 13.2634 19.0574C13.1872 19.1121 13.1109 19.166 13.0341 19.2194C12.9331 19.2899 12.8309 19.3591 12.728 19.4277C12.6505 19.4791 12.5731 19.5305 12.495 19.5807C12.3895 19.6487 12.2822 19.7147 12.1749 19.7801C12.0974 19.8277 12.0199 19.8754 11.9418 19.9211C11.8288 19.9878 11.7151 20.0519 11.6002 20.1161C11.5259 20.158 11.4516 20.2005 11.376 20.2412C11.2484 20.3104 11.1188 20.3758 10.9893 20.4418C10.9251 20.4742 10.8623 20.5085 10.7975 20.5403C10.6044 20.6355 10.4088 20.7276 10.212 20.8152C13.4412 17.6642 15.4473 13.2652 15.4473 8.39636C15.4473 7.65082 15.4003 6.91607 15.3088 6.19467C15.3088 6.19022 15.3095 6.18578 15.3101 6.18197C15.3088 6.18197 15.3082 6.18133 15.3069 6.1807C13.7295 5.45484 12.0104 5.07763 10.2355 5.07763C8.46689 5.07763 6.68433 5.47262 5.11133 6.1934C7.73088 4.20381 11.0509 2.86133 14.4826 2.66891C14.8726 2.64732 15.2745 2.62891 15.6702 2.62891C17.2889 2.62891 18.8486 2.87022 20.3352 3.2849C20.3504 3.43096 20.358 3.57893 20.3695 3.72626L20.3669 3.72689Z" fill="url(#paint0_linear_601_5658)"/>
<path d="M0.456458 3.03423C0.702219 2.86531 0.953695 2.70274 1.21089 2.54525C1.33917 2.4665 1.4649 2.38522 1.59636 2.30901L1.59826 2.30774C1.77798 2.20423 1.95897 2.10453 2.14059 2.008C2.20092 1.97561 2.26252 1.94577 2.32285 1.91465C2.44541 1.85115 2.56797 1.78828 2.6918 1.72858C2.7642 1.69302 2.83723 1.66 2.91026 1.62571C3.02266 1.573 3.1357 1.52029 3.24874 1.47012C3.32621 1.43583 3.40432 1.40281 3.48243 1.36915C3.59229 1.32216 3.70216 1.27643 3.81265 1.23198C3.89267 1.20023 3.97205 1.16848 4.05206 1.13799C4.16193 1.09545 4.27242 1.0548 4.38292 1.0148C4.46294 0.98622 4.54295 0.957008 4.6236 0.929701C4.73664 0.890964 4.84968 0.854131 4.96271 0.817934C5.04082 0.793167 5.11893 0.76713 5.19704 0.743634C5.3177 0.706801 5.43899 0.672509 5.56029 0.638217C5.63078 0.618531 5.70127 0.597574 5.77239 0.578523C5.92417 0.53788 6.07594 0.500413 6.22835 0.464216C6.26899 0.45469 6.309 0.443259 6.34964 0.434369C6.54206 0.389916 6.73448 0.349273 6.92753 0.312441C6.98596 0.30101 7.04438 0.291484 7.10344 0.281323C7.2387 0.256557 7.3746 0.232425 7.5105 0.210834C7.58544 0.198768 7.65974 0.189242 7.73467 0.178447C7.85469 0.161301 7.97472 0.144154 8.09474 0.128913C8.17476 0.118753 8.25477 0.110497 8.33542 0.101607C8.451 0.0889058 8.56658 0.0774751 8.68152 0.0666794C8.76344 0.0596939 8.84472 0.0533435 8.92664 0.0469931C9.04159 0.0387375 9.15589 0.031117 9.27084 0.0247666C9.35212 0.0203213 9.43341 0.0165111 9.51469 0.0133359C9.63154 0.00889058 9.74775 0.00571538 9.8646 0.00381025C9.94335 0.00254017 10.0215 0.000635042 10.1002 0C10.1936 0 10.2863 0.00127008 10.3796 0.00190513C10.5079 0.00317521 10.6355 0.00508033 10.7632 0.00952563C10.8546 0.0127008 10.9461 0.0171461 11.0375 0.0215914C11.1626 0.0279418 11.2871 0.0349273 11.4116 0.0438179C11.5043 0.0501683 11.5964 0.0577888 11.6891 0.0660443C11.8129 0.0768401 11.9361 0.0889058 12.0599 0.102877C12.152 0.113037 12.2435 0.123198 12.3349 0.134629C12.46 0.150505 12.5845 0.168286 12.709 0.186067C12.7979 0.199403 12.8868 0.211469 12.9757 0.226075C13.1052 0.247031 13.2341 0.271163 13.363 0.295294C13.4456 0.310535 13.5288 0.325141 13.6107 0.341652C13.7561 0.370864 13.9009 0.403887 14.0457 0.436909C14.1105 0.451515 14.1759 0.464851 14.2407 0.480727C14.4483 0.530895 14.6554 0.584238 14.8611 0.642027C14.9075 0.654728 14.9526 0.669969 14.9989 0.683305C15.1589 0.729663 15.319 0.777291 15.4784 0.828094C15.5552 0.852861 15.6308 0.879533 15.707 0.90557C15.8346 0.948752 15.9623 0.9913 16.0886 1.03766C16.1725 1.06814 16.255 1.09989 16.3382 1.13164C16.4563 1.17673 16.5751 1.22182 16.6926 1.26945C16.7783 1.30438 16.8634 1.34057 16.9479 1.37614C17.0615 1.4244 17.1752 1.4733 17.2876 1.5241C17.3727 1.5622 17.4578 1.60158 17.5429 1.64158C17.6547 1.69429 17.7658 1.74763 17.8763 1.80288C17.9595 1.84416 18.0427 1.88607 18.1252 1.92862C18.237 1.98641 18.3475 2.04547 18.458 2.1058C18.538 2.14898 18.618 2.19216 18.6968 2.23725C18.8111 2.30139 18.9235 2.36871 19.0359 2.43538C19.1095 2.4792 19.1832 2.52175 19.2562 2.56684C19.3794 2.64304 19.5014 2.72179 19.6233 2.80117C19.6836 2.84054 19.7446 2.87801 19.8043 2.91802C19.9834 3.03804 20.1605 3.1606 20.3358 3.28761C15.9921 2.06643 11.1798 2.52874 6.9631 4.96285C6.31726 5.33562 5.70444 5.74395 5.12592 6.1834C5.12211 6.18531 5.1183 6.18658 5.11385 6.18848C5.11385 6.18975 5.11385 6.19102 5.11385 6.19166C5.27388 7.92088 5.80732 9.59802 6.69447 11.1355C7.57845 12.6672 8.8117 14.0135 10.2228 15.0149C7.18981 13.741 4.36704 11.5374 2.48478 8.66133C2.27077 8.33492 2.05422 7.99581 1.85609 7.65289C1.04641 6.25072 0.475509 4.77932 0.0913086 3.28444C0.210061 3.19807 0.33453 3.11742 0.456458 3.03423Z" fill="url(#paint1_linear_601_5658)"/>
<path d="M9.81137 20.6262C9.54211 20.4973 9.2754 20.3614 9.01058 20.2172C8.87786 20.1455 8.7445 20.0769 8.61368 20.0013L8.61178 20C8.43206 19.8965 8.25552 19.7892 8.08088 19.68C8.02246 19.6438 7.96594 19.6057 7.90879 19.5688C7.79257 19.4945 7.677 19.4196 7.56332 19.3428C7.49664 19.2977 7.43123 19.2507 7.36519 19.205C7.26295 19.1338 7.16134 19.0621 7.06101 18.9891C6.99242 18.9389 6.92447 18.8881 6.85716 18.8373C6.7619 18.7655 6.66728 18.6931 6.57329 18.6201C6.50598 18.5668 6.43866 18.5134 6.37198 18.4594C6.28054 18.3851 6.18973 18.3102 6.10019 18.2346C6.03541 18.1794 5.97 18.1248 5.9065 18.0689C5.81632 17.9908 5.72805 17.9108 5.63978 17.8314C5.57882 17.7761 5.51785 17.7215 5.45816 17.6656C5.36608 17.5793 5.27527 17.4916 5.18509 17.404C5.13238 17.3526 5.07904 17.3024 5.0276 17.2503C4.91647 17.1392 4.80851 17.0261 4.70119 16.9125C4.67261 16.882 4.64277 16.8528 4.61482 16.8223C4.48019 16.6781 4.34874 16.5314 4.22046 16.3835C4.18109 16.3384 4.14426 16.2927 4.10552 16.2469C4.01598 16.1422 3.92771 16.0367 3.84071 15.9301C3.79308 15.871 3.74736 15.8113 3.70036 15.7522C3.62543 15.657 3.55049 15.5617 3.47746 15.4652C3.42857 15.4011 3.38157 15.3357 3.33394 15.2703C3.26536 15.1763 3.19741 15.0823 3.13073 14.9877C3.08374 14.9203 3.03738 14.853 2.99102 14.7851C2.92625 14.6898 2.86274 14.5946 2.79987 14.498C2.75542 14.4301 2.71097 14.3615 2.66778 14.2929C2.60555 14.1945 2.54459 14.0948 2.48426 13.9945C2.44362 13.9271 2.40297 13.8598 2.36296 13.7925C2.31597 13.7119 2.27088 13.6306 2.22516 13.5493C2.16229 13.4375 2.10006 13.3264 2.03973 13.2134C1.99655 13.1327 1.95463 13.0514 1.91272 12.9695C1.85557 12.8584 1.79968 12.7466 1.74507 12.6342C1.70443 12.551 1.66442 12.4672 1.62505 12.3827C1.57234 12.2703 1.52153 12.1573 1.47137 12.0436C1.4339 11.9591 1.39707 11.8747 1.3615 11.7896C1.31261 11.6734 1.26561 11.5565 1.21925 11.4397C1.18623 11.3565 1.15257 11.2727 1.12082 11.1888C1.07446 11.0663 1.03065 10.9424 0.986829 10.8186C0.958887 10.7392 0.929675 10.6605 0.903003 10.5805C0.855375 10.4401 0.811557 10.2979 0.768374 10.1563C0.748688 10.0928 0.727732 10.0293 0.70868 9.96575C0.648351 9.76063 0.591198 9.55488 0.538489 9.34785C0.526423 9.30149 0.516898 9.2545 0.505467 9.20814C0.465459 9.04621 0.426722 8.88364 0.391159 8.72043C0.374013 8.64169 0.359407 8.56294 0.343531 8.48356C0.31686 8.35147 0.290188 8.21938 0.266691 8.08729C0.25145 7.99966 0.237479 7.91202 0.223508 7.82439C0.203187 7.69928 0.183501 7.57418 0.16572 7.44908C0.153019 7.35763 0.141588 7.26619 0.130792 7.1741C0.115551 7.05154 0.10158 6.92898 0.0888795 6.80578C0.0793538 6.71243 0.0710983 6.61908 0.0628427 6.52573C0.0526821 6.40253 0.0431564 6.27933 0.0355359 6.15613C0.0298206 6.06342 0.0241052 5.9707 0.0196599 5.87735C0.0139445 5.75161 0.0101343 5.62651 0.00695905 5.50077C0.00441888 5.40996 0.00187871 5.31915 0.00124367 5.22834C-2.64142e-05 5.09752 0.00124367 4.96606 0.0031488 4.83525C0.00441888 4.74951 0.00441888 4.66442 0.00695905 4.57869C0.0114043 4.4339 0.0183898 4.28847 0.0266453 4.14368C0.0304556 4.07192 0.0329958 4.00017 0.0374411 3.92841C0.051412 3.71313 0.0698282 3.49848 0.0920547 3.2832C1.20655 7.65547 4.0128 11.5921 8.22948 14.0262C8.87532 14.399 9.53513 14.7254 10.2051 15.0073C10.2089 15.0099 10.2121 15.0124 10.2159 15.015C10.2165 15.015 10.2178 15.0137 10.2184 15.0131C11.6358 14.0097 12.8221 12.7091 13.7093 11.1723C14.5932 9.64061 15.1432 7.89996 15.3051 6.17645C15.7185 9.43993 15.2213 12.986 13.6718 16.0545C13.4959 16.4032 13.3105 16.7601 13.1123 17.103C12.3026 18.5052 11.3145 19.7346 10.2121 20.8148C10.0781 20.7551 9.946 20.6872 9.81264 20.6237L9.81137 20.6262Z" fill="url(#paint2_linear_601_5658)"/>
<defs>
<linearGradient id="paint0_linear_601_5658" x1="12.7668" y1="2.62954" x2="12.7668" y2="20.8152" gradientUnits="userSpaceOnUse">
<stop offset="0.07" stop-color="#008993"/>
<stop offset="0.5" stop-color="#00AEB8"/>
</linearGradient>
<linearGradient id="paint1_linear_601_5658" x1="3.30616" y1="10.1648" x2="19.0554" y2="1.07194" gradientUnits="userSpaceOnUse">
<stop offset="0.07" stop-color="#008993"/>
<stop offset="0.5" stop-color="#00AEB8"/>
</linearGradient>
<linearGradient id="paint2_linear_601_5658" x1="14.5618" y1="14.5925" x2="-1.18748" y2="5.49963" gradientUnits="userSpaceOnUse">
<stop offset="0.07" stop-color="#008993"/>
<stop offset="0.5" stop-color="#00AEB8"/>
</linearGradient>
</defs>
</svg>
