<svg width="71" height="25" viewBox="0 0 71 25" fill="none" xmlns="http://www.w3.org/2000/svg">
<path d="M3.34621 22.928H1.30074V24.6432H0.611084V20.7111H1.30074V22.3209H3.34621V20.7111H4.0365V24.6432H3.34621V22.928Z" fill="#0D0D0D"/>
<path d="M5.46021 20.7111H8.15469V21.3182H6.1505V22.338H8.11341V22.9458H6.1505V24.0361H8.15469V24.6432H5.46021V20.7111Z" fill="#0D0D0D"/>
<path d="M11.9439 23.8888H10.0807L9.79178 24.6432H9.03735L10.5824 20.7111H11.4429L12.988 24.6432H12.2335L11.9446 23.8888H11.9439ZM10.275 23.2817H11.7496L11.0123 21.2947L10.275 23.2817Z" fill="#0D0D0D"/>
<path d="M14.0046 20.7111H14.6943V24.0361H16.428V24.6432H14.0046V20.7111Z" fill="#0D0D0D"/>
<path d="M17.989 21.3182H16.7983V20.7111H19.8694V21.3182H18.6787V24.6432H17.989V21.3182Z" fill="#0D0D0D"/>
<path d="M23.7761 22.928H21.7307V24.6432H21.041V20.7111H21.7307V22.3209H23.7761V20.7111H24.4664V24.6432H23.7761V22.928Z" fill="#0D0D0D"/>
<path d="M30.0478 23.5584C30.319 23.8479 30.7432 24.1007 31.2919 24.1007C31.8405 24.1007 32.0825 23.8238 32.0825 23.5641C32.0825 23.2097 31.664 23.1043 31.1865 22.9798C30.5438 22.8211 29.7894 22.6325 29.7894 21.8006C29.7894 21.1522 30.3609 20.6505 31.222 20.6505C31.8348 20.6505 32.3308 20.8448 32.6959 21.1992L32.301 21.7123C31.9942 21.4056 31.5757 21.264 31.163 21.264C30.7502 21.264 30.4968 21.4583 30.4968 21.7529C30.4968 22.0476 30.8975 22.1594 31.3636 22.2775C32.012 22.4426 32.7849 22.6433 32.7849 23.498C32.7849 24.1521 32.3251 24.7129 31.2633 24.7129C30.5381 24.7129 30.0135 24.4589 29.6655 24.088L30.0485 23.5571L30.0478 23.5584Z" fill="#0D0D0D"/>
<path d="M34.7299 21.3182H33.5386V20.7111H36.6103V21.3182H35.4196V24.6432H34.7299V21.3182Z" fill="#0D0D0D"/>
<path d="M39.0025 23.175H38.3186V24.6432H37.6289V20.7111H39.3562C40.1341 20.7111 40.6415 21.2178 40.6415 21.943C40.6415 22.6683 40.1818 23.022 39.7099 23.0982L40.6708 24.6426H39.8751L39.0025 23.1744V23.175ZM39.2622 21.3182H38.3186V22.5673H39.2622C39.6509 22.5673 39.9341 22.3203 39.9341 21.943C39.9341 21.5658 39.6509 21.3182 39.2622 21.3182Z" fill="#0D0D0D"/>
<path d="M44.5973 23.8888H42.734L42.4451 24.6432H41.6907L43.2357 20.7111H44.0962L45.6413 24.6432H44.8862L44.5973 23.8888ZM42.9284 23.2817H44.4029L43.6663 21.2947L42.929 23.2817H42.9284Z" fill="#0D0D0D"/>
<path d="M47.0594 21.3182H45.8687V20.7111H48.9403V21.3182H47.7496V24.6432H47.0594V21.3182Z" fill="#0D0D0D"/>
<path d="M49.959 20.7111H52.6535V21.3182H50.6486V22.338H52.6122V22.9458H50.6486V24.0361H52.6535V24.6432H49.959V20.7111Z" fill="#0D0D0D"/>
<path d="M55.7358 20.6466C56.5023 20.6466 57.0034 21.0118 57.3221 21.4664L56.7563 21.7846C56.5499 21.4899 56.1784 21.2601 55.7364 21.2601C54.9585 21.2601 54.3806 21.8557 54.3806 22.6813C54.3806 23.5068 54.9585 24.1082 55.7364 24.1082C56.1372 24.1082 56.4909 23.919 56.6681 23.7539V23.1411H55.4951V22.534H57.3583V24.0079C56.9691 24.4384 56.421 24.721 55.7371 24.721C54.5991 24.721 53.6738 23.9139 53.6738 22.6813C53.6738 21.4487 54.5997 20.6472 55.7371 20.6472" fill="#0D0D0D"/>
<path d="M59.0654 20.7111H58.3757V24.6432H59.0654V20.7111Z" fill="#0D0D0D"/>
<path d="M60.4676 23.5584C60.7388 23.8479 61.163 24.1007 61.7117 24.1007C62.2604 24.1007 62.5017 23.8238 62.5017 23.5641C62.5017 23.2097 62.0832 23.1043 61.6056 22.9798C60.963 22.8211 60.2086 22.6325 60.2086 21.8006C60.2086 21.1522 60.7801 20.6505 61.6412 20.6505C62.254 20.6505 62.7494 20.8448 63.1151 21.1992L62.7201 21.7123C62.4134 21.4056 61.9949 21.264 61.5822 21.264C61.1694 21.264 60.916 21.4583 60.916 21.7529C60.916 22.0476 61.3167 22.1594 61.7828 22.2775C62.4312 22.4426 63.204 22.6433 63.204 23.498C63.204 24.1521 62.7443 24.7129 61.6825 24.7129C60.9573 24.7129 60.4327 24.4589 60.0847 24.088L60.4676 23.5571V23.5584Z" fill="#0D0D0D"/>
<path d="M68.3541 23.5584C68.6253 23.8479 69.0495 24.1007 69.5982 24.1007C70.1468 24.1007 70.3882 23.8238 70.3882 23.5641C70.3882 23.2097 69.9697 23.1043 69.4921 22.9798C68.8495 22.8211 68.095 22.6325 68.095 21.8006C68.095 21.1522 68.6666 20.6505 69.5277 20.6505C70.1405 20.6505 70.6358 20.8448 71.0016 21.1992L70.6066 21.7123C70.2999 21.4056 69.8814 21.264 69.4686 21.264C69.0558 21.264 68.8025 21.4583 68.8025 21.7529C68.8025 22.0476 69.2032 22.1594 69.6693 22.2775C70.3177 22.4426 71.0905 22.6433 71.0905 23.498C71.0905 24.1521 70.6307 24.7129 69.569 24.7129C68.8437 24.7129 68.3192 24.4589 67.9712 24.088L68.3541 23.5571V23.5584Z" fill="#0D0D0D"/>
<path d="M65.4134 21.3182H64.2227V20.7111H67.2937V21.3182H66.1036V24.6432H65.4134V21.3182Z" fill="#0D0D0D"/>
<path d="M42.3529 5.3687C41.154 4.0675 39.5848 3.40833 37.6892 3.40833C35.6958 3.40833 34.0523 4.06686 32.8063 5.36489C31.5433 6.65275 30.9019 8.27909 30.9019 10.1956C30.9019 12.1122 31.5515 13.7697 32.8324 15.0524C34.1133 16.3333 35.8317 16.9811 37.9381 16.9811C40.3951 16.9811 42.2805 16.0545 43.5424 14.225L43.6745 14.0338L40.7202 12.3294L40.6053 12.4805C40.0217 13.2489 39.1422 13.6395 37.9883 13.6395C37.9134 13.6395 37.8391 13.6376 37.7673 13.6363C37.4771 13.6255 37.2078 13.5982 36.9595 13.5493C36.9576 13.5512 36.9563 13.5493 36.9544 13.5474C36.0679 13.3753 35.4303 12.96 35.0309 12.2894C35.0271 12.2875 35.0258 12.2843 35.0239 12.2805C34.8658 12.0462 34.7578 11.8042 34.7077 11.58H44.0707L44.0758 11.547C44.138 11.1488 44.2028 10.6764 44.2028 10.195C44.2028 8.26957 43.5982 6.69022 42.3536 5.36743M34.707 8.81126C35.1223 7.46307 36.1721 6.72578 37.6892 6.72578C39.0774 6.72578 40.1112 7.49926 40.4992 8.81126H34.7077H34.707Z" fill="#0D0D0D"/>
<path d="M25.9207 3.7561V10.6927C25.9207 12.5451 25.024 13.565 23.397 13.565C21.9669 13.565 21.147 12.7083 21.147 11.2153V3.7561H17.5063V11.6135C17.5063 13.2557 17.9699 14.5785 18.8869 15.5469C19.8262 16.5122 20.9838 16.9815 22.4267 16.9815C23.8695 16.9815 25.1097 16.5331 25.9213 15.6485V16.6335H29.562V3.7561H25.9213H25.9207Z" fill="#0D0D0D"/>
<path d="M12.2203 5.47834V3.7561H8.57959V16.6335H12.2203V10.7174C12.2203 9.59087 12.5638 8.80977 13.2713 8.33094C13.9978 7.83879 14.8348 7.65018 15.7625 7.7683L16.0045 7.79941V3.7561H15.7899C14.2384 3.7561 12.9607 4.38543 12.2203 5.47834Z" fill="#0D0D0D"/>
<path d="M4.25168 7.27229V12.2377C4.25168 12.6149 4.33042 12.8638 4.50062 13.0283C4.86449 13.3693 5.69767 13.3528 6.83884 13.2906L7.06491 13.2804V16.6093L6.8744 16.6322C6.2546 16.7008 5.69068 16.7369 5.17566 16.7369C3.62743 16.7369 2.5358 16.4188 1.80105 15.7628C0.990742 15.035 0.610352 13.9161 0.610352 12.237V1.47055L4.25104 0.0899658V3.7567H7.06491V7.27229H4.25104H4.25168Z" fill="#0D0D0D"/>
<path d="M54.2296 9.89575L54.5135 9.81256C55.5587 9.50329 56.3754 8.94446 57.0149 8.10048C57.6747 7.25588 58.0094 6.26839 58.0094 5.16088C58.0094 3.82221 57.5407 2.70073 56.5742 1.7361C55.607 0.768929 54.4881 0.300903 53.1494 0.300903H46.5913V16.6602H47.8284V10.0209H52.9417L56.8301 16.6602H58.2335L54.2296 9.89638V9.89575ZM47.8284 8.88222V1.43826H53.1494C54.1553 1.43826 55.0183 1.80532 55.7156 2.52736C56.4173 3.25639 56.7748 4.14291 56.7748 5.16024C56.7748 6.17758 56.4192 7.0387 55.7181 7.79059C55.0189 8.51517 54.1559 8.88222 53.15 8.88222H47.829H47.8284Z" fill="#0D0D0D"/>
<path d="M71.0899 16.66H69.5671L65.3129 11.0456L61.0619 16.66H59.541L64.5674 10.0162L59.8122 3.75598H61.3337L65.3129 9.0173L69.2946 3.75598H70.8181L66.0883 10.0162L71.0899 16.66Z" fill="#0D0D0D"/>
</svg>
